<svg width="181" height="94" viewBox="0 0 181 94" fill="none" xmlns="http://www.w3.org/2000/svg">
<g clip-path="url(#clip0_197_607)">
<path d="M7.77352 56.2516V45.9059C7.77352 45.6564 7.60607 45.4453 7.36778 45.3685C6.55629 45.119 5.79633 44.7607 5.08789 44.2936C4.26352 43.7498 3.5422 43.0908 2.93681 42.323C2.33141 41.5553 1.86127 40.7043 1.53281 39.7574C1.20435 38.8105 1.0369 37.8188 1.0369 36.7823V32.5916C1.0369 31.3568 1.26875 30.1987 1.7389 29.0983C2.20904 28.0042 2.85308 27.0509 3.68389 26.2447C4.50825 25.4386 5.47431 24.7988 6.57561 24.3381C7.67691 23.8711 8.84906 23.6407 10.092 23.6407H25.4716C26.7146 23.6407 27.8739 23.8711 28.9623 24.3381C30.0507 24.8052 31.0104 25.4386 31.8347 26.2447C32.6591 27.0509 33.3096 28.0042 33.7797 29.0983C34.2499 30.1923 34.4817 31.3568 34.4817 32.5916V36.7823C34.4817 37.8252 34.3143 38.8105 33.9858 39.7382C33.6573 40.6659 33.1936 41.5105 32.6011 42.2654C32.0086 43.0204 31.313 43.6666 30.5144 44.2168C29.8253 44.6903 29.0911 45.055 28.299 45.3237C28.0671 45.4005 27.9061 45.6116 27.9061 45.8547V56.258C27.9061 56.5715 28.1637 56.8274 28.4793 56.8274H34.9841C35.2996 56.8274 35.5572 57.0833 35.5572 57.3968V61.7667C35.5572 62.0802 35.2996 62.3361 34.9841 62.3361H0.573192C0.257615 62.3361 0 62.0802 0 61.7667V57.3968C0 57.0833 0.257615 56.8274 0.573192 56.8274H7.20677C7.52234 56.8274 7.77996 56.5715 7.77996 56.258L7.77352 56.2516ZM24.6795 40.2245C25.9225 40.2245 26.9078 39.7958 27.6356 38.9321C28.3634 38.0683 28.7305 37.0254 28.7305 35.7906V33.6153C28.7305 32.3805 28.3634 31.3376 27.6356 30.4739C26.9078 29.6101 25.9225 29.1814 24.6795 29.1814H10.8713C9.62834 29.1814 8.64297 29.6101 7.91521 30.4739C7.18745 31.3376 6.82034 32.3805 6.82034 33.6153V35.7906C6.82034 36.392 6.91695 36.9615 7.11016 37.4925C7.30337 38.0299 7.57387 38.497 7.91521 38.9065C8.25655 39.3159 8.68161 39.6422 9.17752 39.8726C9.67343 40.1029 10.2402 40.2245 10.8713 40.2245H24.6795ZM14.3813 56.8146H21.3047C21.6203 56.8146 21.8779 56.5587 21.8779 56.2452V46.3346C21.8779 46.0211 21.6203 45.7652 21.3047 45.7652H14.3813C14.0658 45.7652 13.8081 46.0211 13.8081 46.3346V56.2452C13.8081 56.5587 14.0658 56.8146 14.3813 56.8146Z" fill="#413938"/>
<path d="M55.3163 30.7234L43.2148 32.4381C42.3969 32.4381 41.74 31.8175 41.74 31.0561V28.4841C41.74 27.7227 42.4033 27.1021 43.2148 27.1021L62.2204 25.3875C63.0383 25.3875 63.6952 26.0081 63.6952 26.7694V30.5891C63.6952 30.6786 63.6888 30.7618 63.6694 30.8514L57.3386 61.4916C57.2033 62.1442 56.5979 62.6112 55.8895 62.6112H53.9445C53.0493 62.6112 52.3537 61.8691 52.4825 61.0373L56.7782 32.2973C56.9006 31.4656 56.2115 30.7234 55.3163 30.7234Z" fill="#413938"/>
<path d="M150.518 30.7234L138.416 32.4381C137.598 32.4381 136.941 31.8175 136.941 31.0561V28.4841C136.941 27.7227 137.605 27.1021 138.416 27.1021L157.422 25.3875C158.24 25.3875 158.897 26.0081 158.897 26.7694V30.5891C158.897 30.6786 158.89 30.7618 158.871 30.8514L152.54 61.4916C152.405 62.1442 151.799 62.6112 151.091 62.6112H149.146C148.251 62.6112 147.555 61.8691 147.684 61.0373L151.98 32.2973C152.102 31.4656 151.413 30.7234 150.518 30.7234Z" fill="#413938"/>
<path d="M110.62 55.631V46.3858C110.62 45.9316 110.987 45.5669 111.444 45.5669H115.83C116.287 45.5669 116.654 45.9316 116.654 46.3858V55.631C116.654 56.0852 117.021 56.4499 117.479 56.4499H130.585C131.042 56.4499 131.409 56.8146 131.409 57.2689V61.5876C131.409 62.0418 131.042 62.4065 130.585 62.4065H96.6828C96.2255 62.4065 95.8584 62.0418 95.8584 61.5876V57.2689C95.8584 56.8146 96.2255 56.4499 96.6828 56.4499H109.789C110.246 56.4499 110.613 56.0852 110.613 55.631H110.62ZM115.379 28.9768H98.7566C98.2993 28.9768 97.9322 28.6121 97.9322 28.1578V24.3766C97.9322 23.9223 98.2993 23.5576 98.7566 23.5576H128.524C128.981 23.5576 129.348 23.9223 129.348 24.3766V28.5225C129.348 28.804 129.2 29.0663 128.962 29.2199L120.197 34.6582C119.681 34.9781 119.681 35.7139 120.184 36.0402L128.968 41.6705C129.207 41.824 129.348 42.0799 129.348 42.3615V47.0064C129.348 47.6526 128.633 48.0429 128.086 47.7038L114.078 39.0217C113.814 38.8553 113.473 38.8553 113.202 39.0217L99.1945 47.7038C98.6471 48.0429 97.9322 47.6526 97.9322 47.0064V42.3615C97.9322 42.0799 98.0739 41.824 98.3122 41.6705L115.83 30.4867C116.526 30.0452 116.21 28.9768 115.386 28.9768H115.379Z" fill="#413938"/>
<path d="M48.3091 79.0222C48.3478 79.0862 48.3349 79.1757 48.2705 79.2845L43.511 87.1029C43.4466 87.1989 43.4016 87.3012 43.3887 87.4164C43.3758 87.5316 43.3694 87.7299 43.3694 88.005V93.3538C43.3694 93.6481 43.2019 93.7952 42.867 93.7952H40.7868C40.6258 93.7952 40.5163 93.7633 40.4648 93.7057C40.4132 93.6481 40.381 93.5457 40.381 93.4178V87.9666C40.381 87.7939 40.3617 87.6659 40.3295 87.5827C40.2973 87.4996 40.2458 87.4036 40.1814 87.282L35.3769 79.3421C35.2996 79.2205 35.2803 79.1245 35.3253 79.0414C35.3704 78.9582 35.4735 78.9198 35.6409 78.9198H38.1205C38.2815 78.9198 38.391 78.9454 38.4554 78.9902C38.5133 79.035 38.5842 79.1181 38.6679 79.2397L41.9138 84.87C41.9782 85.0043 42.0426 85.0747 42.107 85.0811C42.165 85.0875 42.2359 85.0235 42.3196 84.8892L45.5269 79.2397C45.5913 79.1053 45.6621 79.0222 45.7265 78.9774C45.7909 78.939 45.9004 78.9198 46.0486 78.9198H48.0644C48.1867 78.9198 48.264 78.9518 48.3091 79.0222Z" fill="#413938"/>
<path d="M51.7998 93.0914C50.7887 92.49 50.0159 91.6199 49.4684 90.4874C48.921 89.355 48.6505 87.9922 48.6505 86.4183C48.6505 84.8444 48.9274 83.4368 49.4749 82.2915C50.0287 81.1399 50.808 80.2634 51.8127 79.6428C52.8239 79.0285 54.0089 78.7214 55.3807 78.7214C56.7525 78.7214 57.9375 79.0285 58.9422 79.6428C59.9469 80.257 60.7198 81.1335 61.2736 82.2787C61.8275 83.424 62.098 84.7932 62.098 86.3991C62.098 88.005 61.8275 89.3294 61.2801 90.4682C60.7326 91.6071 59.9598 92.4772 58.9487 93.085C57.9375 93.6929 56.7461 94 55.3743 94C54.0025 94 52.7917 93.6992 51.7805 93.0978L51.7998 93.0914ZM58.105 90.577C58.691 89.7133 58.9809 88.3377 58.9809 86.4375C58.9809 84.5373 58.6846 83.0785 58.0921 82.1764C57.4996 81.2743 56.5979 80.8264 55.3871 80.8264C54.1763 80.8264 53.2489 81.2807 52.6564 82.1764C52.0575 83.0785 51.7612 84.4989 51.7612 86.4375C51.7612 88.3761 52.0575 89.7005 52.6564 90.5642C53.2554 91.4343 54.1699 91.8694 55.4129 91.8694C56.6559 91.8694 57.5189 91.4407 58.105 90.577Z" fill="#413938"/>
<path d="M67.2696 93.0658C66.2777 92.4452 65.5178 91.5687 64.9768 90.4298C64.4358 89.2974 64.1718 87.9602 64.1718 86.4183C64.1718 84.8764 64.4551 83.456 65.0219 82.3107C65.5886 81.1591 66.3744 80.2762 67.3855 79.6555C68.3966 79.0349 69.5688 78.7214 70.9148 78.7214C71.9517 78.7214 72.8856 78.9198 73.7164 79.3229C74.5472 79.7259 75.2299 80.2442 75.7644 80.8776C76.2925 81.511 76.621 82.1828 76.7433 82.893C76.782 83.0657 76.7884 83.1809 76.7627 83.2321C76.7369 83.2832 76.6596 83.328 76.5437 83.3536L74.3024 83.6927C74.193 83.7055 74.1221 83.6927 74.0899 83.6415C74.0577 83.5967 74.0255 83.52 73.9997 83.4112C73.916 82.9441 73.7421 82.5155 73.4652 82.1316C73.1883 81.7413 72.8276 81.4342 72.3832 81.1975C71.9388 80.9608 71.43 80.8456 70.8504 80.8456C70.0969 80.8456 69.4528 81.0375 68.9247 81.4278C68.3902 81.8181 67.9909 82.4131 67.714 83.2129C67.437 84.0126 67.3018 85.0427 67.3018 86.2967C67.3018 87.6211 67.4435 88.6896 67.7268 89.5021C68.0102 90.3147 68.4288 90.9161 68.9763 91.2936C69.5301 91.6775 70.1806 91.863 70.9341 91.863C71.4429 91.863 71.8937 91.7862 72.2737 91.6199C72.6602 91.4599 72.9822 91.2488 73.2527 90.9865C73.5232 90.7242 73.7357 90.4298 73.8903 90.1035C74.0448 89.7772 74.1479 89.4445 74.2058 89.1119L74.2252 88.3121C74.2767 88.1393 74.2187 88.0498 74.0448 88.0498H71.3012C71.2046 88.0498 71.1338 88.0306 71.0887 87.9922C71.0436 87.9538 71.0179 87.8706 71.0179 87.7491V86.4695C71.0179 86.3095 71.1145 86.2263 71.3012 86.2263L76.5501 86.2455C76.7111 86.2455 76.8335 86.2839 76.9108 86.3543C76.9945 86.4311 77.0332 86.527 77.0332 86.6422V93.4945C77.0332 93.5905 77.0074 93.6609 76.9623 93.7056C76.9172 93.7504 76.8528 93.776 76.7691 93.776H76.183C76.0735 93.776 75.9834 93.7568 75.9125 93.7184C75.8417 93.68 75.7708 93.5969 75.7 93.4753L75.2363 91.8886C75.2234 91.8502 75.1977 91.831 75.1655 91.831C75.1332 91.831 75.0946 91.863 75.056 91.9334C74.7984 92.2533 74.4892 92.5732 74.1157 92.8931C73.7486 93.213 73.2913 93.4753 72.7439 93.6737C72.1964 93.872 71.5331 93.9744 70.7538 93.9744C69.4206 93.9744 68.2614 93.6609 67.276 93.0402L67.2696 93.0658Z" fill="#413938"/>
<path d="M82.5139 78.9261C82.7006 78.9261 82.7973 79.0349 82.7973 79.246V93.3601C82.7973 93.5201 82.7586 93.6352 82.6878 93.6992C82.6105 93.7632 82.4881 93.8016 82.3142 93.8016H80.2147C80.0537 93.8016 79.9442 93.7696 79.8927 93.712C79.8411 93.6544 79.8154 93.5649 79.8154 93.4433V79.2716C79.8154 79.0477 79.9184 78.9325 80.1181 78.9325H82.5203L82.5139 78.9261Z" fill="#413938"/>
<path d="M90.983 89.0862C90.983 89.3422 90.8284 89.4701 90.5192 89.4701H85.8371C85.7019 89.4701 85.6052 89.4445 85.5537 89.387C85.5022 89.3358 85.4764 89.2462 85.4764 89.1246V87.8642C85.4764 87.6531 85.5666 87.5443 85.7405 87.5443H90.7253C90.8992 87.5443 90.9894 87.6339 90.9894 87.8066V89.0862H90.983Z" fill="#413938"/>
<path d="M91.9361 93.7249C91.8846 93.6801 91.8524 93.5905 91.8524 93.4562V92.8163C91.8524 92.6692 91.8717 92.554 91.9039 92.4772C91.9361 92.4005 92.0199 92.2725 92.1551 92.0934L99.3554 81.3702C99.4521 81.2103 99.4005 81.1271 99.2138 81.1271H92.6188C92.4965 81.1271 92.4192 81.1015 92.3741 81.0567C92.3354 81.012 92.3161 80.9288 92.3161 80.8072V79.2013C92.3161 79.0158 92.3999 78.9198 92.5609 78.9198H103.355C103.529 78.9198 103.619 79.0158 103.619 79.2013V79.9243C103.619 80.0331 103.6 80.1226 103.567 80.193C103.535 80.2698 103.471 80.3658 103.374 80.4809L96.0065 91.3448C95.9549 91.428 95.9485 91.4791 95.9871 91.5175C96.0258 91.5495 96.0902 91.5687 96.1675 91.5687H103.252C103.452 91.5687 103.555 91.6583 103.555 91.831V93.4945C103.555 93.5713 103.529 93.6417 103.477 93.7057C103.426 93.7633 103.336 93.7952 103.213 93.7952H92.2195C92.0843 93.7952 91.9877 93.7697 91.9361 93.7249Z" fill="#413938"/>
<path d="M108.134 93.0914C107.123 92.49 106.35 91.6199 105.802 90.4874C105.255 89.355 104.984 87.9922 104.984 86.4183C104.984 84.8444 105.261 83.4368 105.809 82.2915C106.363 81.1399 107.142 80.2634 108.147 79.6428C109.158 79.0285 110.343 78.7214 111.715 78.7214C113.086 78.7214 114.271 79.0285 115.276 79.6428C116.281 80.257 117.054 81.1335 117.607 82.2787C118.161 83.424 118.432 84.7932 118.432 86.3991C118.432 88.005 118.161 89.3294 117.614 90.4682C117.066 91.6071 116.294 92.4772 115.282 93.085C114.271 93.6929 113.08 94 111.708 94C110.336 94 109.125 93.6992 108.114 93.0978L108.134 93.0914ZM114.439 90.577C115.025 89.7133 115.315 88.3377 115.315 86.4375C115.315 84.5373 115.018 83.0785 114.426 82.1764C113.833 81.2743 112.932 80.8264 111.721 80.8264C110.51 80.8264 109.583 81.2807 108.99 82.1764C108.391 83.0785 108.095 84.4989 108.095 86.4375C108.095 88.3761 108.391 89.7005 108.99 90.5642C109.589 91.4343 110.504 91.8694 111.747 91.8694C112.99 91.8694 113.853 91.4407 114.439 90.577Z" fill="#413938"/>
<path d="M123.603 93.0658C122.612 92.4452 121.852 91.5687 121.311 90.4298C120.77 89.2974 120.506 87.9602 120.506 86.4183C120.506 84.8764 120.789 83.456 121.356 82.3107C121.922 81.1591 122.708 80.2762 123.719 79.6555C124.73 79.0349 125.903 78.7214 127.249 78.7214C128.286 78.7214 129.219 78.9198 130.05 79.3229C130.881 79.7259 131.564 80.2442 132.098 80.8776C132.626 81.511 132.955 82.1828 133.077 82.893C133.116 83.0657 133.122 83.1809 133.097 83.2321C133.071 83.2832 132.993 83.328 132.878 83.3536L130.636 83.6927C130.527 83.7055 130.456 83.6927 130.424 83.6415C130.392 83.5967 130.359 83.52 130.334 83.4112C130.25 82.9441 130.076 82.5155 129.799 82.1316C129.522 81.7413 129.161 81.4342 128.717 81.1975C128.273 80.9608 127.764 80.8456 127.184 80.8456C126.431 80.8456 125.787 81.0375 125.259 81.4278C124.724 81.8181 124.325 82.4131 124.048 83.2129C123.771 84.0126 123.636 85.0427 123.636 86.2967C123.636 87.6211 123.777 88.6896 124.061 89.5021C124.344 90.3147 124.763 90.9161 125.31 91.2936C125.864 91.6775 126.514 91.863 127.268 91.863C127.777 91.863 128.228 91.7862 128.608 91.6199C128.994 91.4599 129.316 91.2488 129.587 90.9865C129.857 90.7242 130.07 90.4298 130.224 90.1035C130.379 89.7772 130.482 89.4445 130.54 89.1119L130.559 88.3121C130.611 88.1393 130.553 88.0498 130.379 88.0498H127.635C127.538 88.0498 127.468 88.0306 127.423 87.9922C127.377 87.9538 127.352 87.8706 127.352 87.7491V86.4695C127.352 86.3095 127.448 86.2263 127.635 86.2263L132.884 86.2455C133.045 86.2455 133.167 86.2839 133.245 86.3543C133.328 86.4311 133.367 86.527 133.367 86.6422V93.4945C133.367 93.5905 133.341 93.6609 133.296 93.7056C133.251 93.7504 133.187 93.776 133.103 93.776H132.517C132.407 93.776 132.317 93.7568 132.246 93.7184C132.176 93.68 132.105 93.5969 132.034 93.4753L131.57 91.8886C131.557 91.8502 131.532 91.831 131.499 91.831C131.467 91.831 131.428 91.863 131.39 91.9334C131.132 92.2533 130.823 92.5732 130.45 92.8931C130.082 93.213 129.625 93.4753 129.078 93.6737C128.53 93.872 127.867 93.9744 127.088 93.9744C125.755 93.9744 124.595 93.6609 123.61 93.0402L123.603 93.0658Z" fill="#413938"/>
<path d="M138.848 78.9261C139.035 78.9261 139.131 79.0349 139.131 79.246V93.3601C139.131 93.5201 139.092 93.6352 139.022 93.6992C138.944 93.7632 138.822 93.8016 138.648 93.8016H136.549C136.388 93.8016 136.278 93.7696 136.227 93.712C136.175 93.6544 136.149 93.5649 136.149 93.4433V79.2716C136.149 79.0477 136.252 78.9325 136.452 78.9325H138.854L138.848 78.9261Z" fill="#413938"/>
<path d="M169.008 26.7375H168.918C165.311 26.7375 162.465 25.541 160.468 23.1801C155.825 17.697 157.016 7.51775 157.75 3.39101C157.956 2.23297 158.729 1.26046 159.824 0.787009C160.874 0.332748 162.014 0.415923 162.954 1.02374L163.018 1.06212C163.637 1.4844 163.997 2.18178 163.997 2.94955V14.4212H166.039L165.975 1.88747C165.975 1.84269 165.968 1.27326 166.464 0.767815C166.966 0.255972 167.771 -0.00634766 168.866 -0.00634766C171.687 -0.00634766 171.964 1.73392 171.977 1.8043V1.84908L171.919 14.4212H173.961V3.19907C173.961 2.18178 174.508 1.24767 175.358 0.818999C176.485 0.249574 177.741 0.32635 178.907 1.04933C179.512 1.42681 179.95 2.04742 180.098 2.75121C180.781 6.00781 182.636 17.102 177.793 23.0074C175.764 25.477 172.814 26.7311 169.034 26.7311L169.008 26.7375ZM168.963 25.5602C172.409 25.5858 175.049 24.4598 176.852 22.2652C181.367 16.7629 179.577 6.12937 178.92 2.99433C178.836 2.60405 178.598 2.25856 178.263 2.04742C177.445 1.54198 176.646 1.478 175.886 1.86828C175.429 2.09861 175.133 2.62325 175.133 3.19907V15.6049H170.708L170.779 1.95145C170.734 1.82989 170.438 1.17729 168.847 1.17729C167.533 1.17729 167.16 1.62515 167.147 1.89387L167.218 15.6049H162.793V2.95594C162.793 2.58486 162.626 2.23936 162.355 2.05382L162.619 1.51639L162.297 2.00903C161.698 1.62515 160.964 1.56757 160.288 1.86188C159.56 2.17538 159.045 2.82159 158.91 3.58935C158.362 6.6796 156.926 17.166 161.37 22.4124C163.134 24.4917 165.672 25.5474 168.918 25.5474H168.956L168.963 25.5602Z" fill="#413938"/>
<path d="M172.248 33.5961H165.788V25.3362H172.248V33.5961ZM166.973 32.4188H171.056V26.5198H166.973V32.4188Z" fill="#413938"/>
<path d="M77.7094 33.5961H71.2498V25.3362H77.7094V33.5961ZM72.4412 32.4188H76.5244V26.5198H72.4412V32.4188Z" fill="#413938"/>
<path d="M77.4003 64.8378H71.5718C70.3159 64.8378 69.2983 63.8269 69.2983 62.5792V34.6838C69.2983 33.4362 70.3159 32.4253 71.5718 32.4253H77.4003C78.6562 32.4253 79.6738 33.4362 79.6738 34.6838V62.5792C79.6738 63.8269 78.6562 64.8378 77.4003 64.8378ZM71.5718 33.5961C70.9728 33.5961 70.4834 34.0824 70.4834 34.6774V62.5729C70.4834 63.1679 70.9728 63.6541 71.5718 63.6541H77.4003C77.9993 63.6541 78.4887 63.1679 78.4887 62.5729V34.6774C78.4887 34.0824 77.9993 33.5961 77.4003 33.5961H71.5718Z" fill="#413938"/>
<path d="M171.938 64.3642H166.103C164.848 64.3642 163.83 63.3534 163.83 62.1057V34.2103C163.83 32.9627 164.848 31.9518 166.103 31.9518H171.938C173.194 31.9518 174.212 32.9627 174.212 34.2103V62.1057C174.212 63.3534 173.194 64.3642 171.938 64.3642ZM166.103 33.1226C165.505 33.1226 165.015 33.6089 165.015 34.2039V62.0993C165.015 62.6944 165.505 63.1806 166.103 63.1806H171.938C172.537 63.1806 173.027 62.6944 173.027 62.0993V34.2039C173.027 33.6089 172.537 33.1226 171.938 33.1226H166.103Z" fill="#413938"/>
<path d="M74.2316 26.5071C74.0384 26.5071 73.8452 26.5071 73.652 26.4879C67.656 26.1104 63.1542 19.9171 63.6114 12.6809C64.0687 5.44476 69.324 -0.140734 75.32 0.243149C78.2504 0.428692 80.9038 1.98342 82.8037 4.61941C84.6714 7.21701 85.5795 10.5696 85.3605 14.0501C85.1416 17.5307 83.8149 20.7425 81.6251 23.0905C79.5578 25.3107 76.9494 26.5135 74.2316 26.5135V26.5071ZM74.7468 1.40119C69.6139 1.40119 65.2022 6.37247 64.7965 12.7577C64.3778 19.3477 68.3838 24.978 73.7293 25.3171C76.2925 25.477 78.7914 24.4021 80.7621 22.2908C82.7651 20.1475 83.9759 17.1916 84.182 13.9797C84.3881 10.7679 83.5572 7.68407 81.8441 5.304C80.1567 2.96232 77.8189 1.58034 75.2492 1.42039C75.0817 1.40759 74.9143 1.40759 74.7468 1.40759V1.40119Z" fill="#413938"/>
</g>
<defs>
<clipPath id="clip0_197_607">
<rect width="181" height="94" fill="white"/>
</clipPath>
</defs>
</svg>
